<svg width="252" height="129" viewBox="0 0 252 129" fill="none" xmlns="http://www.w3.org/2000/svg">
<path d="M120.182 0.506474C157.53 -0.558831 217.402 9.00838 242.059 40.0409C264.866 68.7425 242.967 94.8464 216.589 108.901C167.174 135.225 83.0533 134.899 33.8824 108.131C6.23583 93.0803 -13.2914 65.4747 12.122 37.3378C36.1876 10.6975 85.7898 1.48707 120.182 0.506474ZM157.17 23.245C150.08 11.4291 138.783 1.64365 124.025 3.83587C114.692 5.22205 106.857 11.8603 101.556 19.3149C100.696 20.5214 99.785 21.8793 99.2049 23.245H157.17ZM64.5786 23.245H95.4853C99.9288 15.5337 105.443 9.03149 113.244 4.59057C113.824 4.25943 113.783 4.23119 113.177 4.26713C110.903 4.40575 108.097 4.95765 105.823 5.38121C90.9751 8.14844 76.433 13.8446 64.5761 23.2424L64.5786 23.245ZM189.23 23.245C179.539 15.508 167.415 10.0095 155.376 6.96762C152.593 6.26426 146.605 4.71379 143.966 4.78053C143.678 4.78823 143.511 4.69325 143.578 5.04237C150.922 9.14443 156.611 15.8777 160.505 23.245H189.232H189.23ZM36.108 23.245H59.8322C66.6836 17.1227 75.0802 12.289 83.5616 8.76708C85.6563 7.89687 87.8511 7.25255 89.9714 6.45165C90.1562 6.38234 90.762 6.33357 90.3513 6.0666C72.046 8.8903 54.113 13.955 37.5917 22.2926C37.1682 22.5057 36.3442 22.8651 36.108 23.245ZM215.649 23.245C215.59 22.8574 215.164 22.7649 214.884 22.5981C205.035 16.7171 189.178 11.904 177.948 9.27278C174.459 8.45391 169.202 7.04206 165.765 6.83413C165.115 6.79563 165.054 6.90344 165.729 7.12934C176.084 10.582 185.895 16.273 194.233 23.2475H215.649V23.245ZM55.8585 26.5769H30.0807C13.5723 36.7063 -1.72701 53.5613 5.00623 74.449C8.45115 85.1379 17.2585 93.6193 26.2328 99.8854H53.5482C49.5899 94.967 45.7445 89.8689 43.2879 83.9956L46.5814 84.0341C49.1946 90.0204 53.3429 95.1595 57.7786 99.8828H92.5333C91.0264 94.9901 88.29 89.4531 87.6739 84.3576C87.6123 83.8442 87.6611 84.0393 88.0385 83.9905C88.8265 83.8878 89.766 84.0701 90.5798 83.9751C91.966 89.353 93.5395 94.659 95.8396 99.7237L160.076 99.8417C160.556 99.6774 162.494 94.5075 162.815 93.6091C163.906 90.5441 164.753 87.4097 165.498 84.2421L168.455 83.9931C167.61 89.4736 165.613 94.7488 163.58 99.8854H196.025C200.609 95.3238 204.457 90.0615 207.306 84.2472C207.733 83.8673 209.514 83.9135 210.135 83.9931C210.431 84.0316 210.651 83.8904 210.51 84.3704C210.002 86.0852 207.484 90.1539 206.418 91.8173C204.585 94.6769 202.373 97.2439 200.257 99.8854H225.779C239.463 90.0537 251.451 76.2561 247.845 58.0972C245.095 44.2507 233.269 33.8287 221.931 26.5795H197.95C201.841 30.9357 205.658 35.3818 208.459 40.5568C208.533 41.0728 208.441 40.8854 208.087 40.9316C207.288 41.0369 206.336 40.8469 205.51 40.9496L205.186 40.8751C202.193 35.4203 197.924 30.8484 193.463 26.5744H162.556L167.685 40.9265C166.917 40.8033 164.93 41.2217 164.473 40.6775C164.227 40.3823 162.908 35.5922 162.559 34.645C162.127 33.4796 159.514 26.8644 158.795 26.6154L97.7777 26.559C97.331 26.5282 97.1796 26.6565 96.9229 26.9851C96.3299 27.7449 94.9129 31.3439 94.4637 32.4733C93.3624 35.238 92.5538 38.1284 91.6092 40.9444C90.7954 40.8469 89.8508 41.0343 89.0653 40.929C88.693 40.8803 88.634 41.0754 88.6956 40.5594C89.227 36.1698 92.2329 30.7278 93.8142 26.5744H60.5998C57.1138 29.4674 53.941 33.0817 51.2867 36.7474C50.7143 37.5355 49.2305 40.313 48.7993 40.6698C48.1806 41.1832 46.1809 40.9316 45.3415 40.8033C47.5543 36.8475 50.1598 33.0484 53.158 29.6471C53.4686 29.2954 56.1974 26.8773 55.856 26.5744L55.8585 26.5769ZM57.2678 103.471H32.2601C32.8402 104.116 33.8799 104.627 34.6525 105.053C51.6435 114.443 70.6932 119.69 89.8379 122.703C90.4976 122.688 90.5798 122.644 89.8764 122.408C77.8577 118.381 66.4859 112.248 57.2678 103.471ZM94.2018 103.471H62.0116C63.2361 104.906 64.8738 106.044 66.3986 107.16C80.0987 117.19 96.6405 122.624 113.434 124.749C113.793 124.57 113.098 124.256 112.974 124.185C107.371 120.899 102.924 116.62 99.1459 111.347C97.3336 108.819 95.8883 106.077 94.2018 103.471ZM158.197 103.471H97.924C99.2306 106.151 100.879 108.77 102.691 111.139C119.038 132.512 142.898 128.89 156.408 106.937C156.67 106.511 158.436 103.679 158.197 103.471ZM192.053 103.471H161.917C157.55 111.493 151.744 119.369 143.645 123.918C143.062 124.246 143.111 124.277 143.712 124.241C146.035 124.105 149.256 123.384 151.585 122.875C166.299 119.656 180.622 113.308 192.056 103.469L192.053 103.471ZM219.754 103.471H196.543C189.769 110.128 181.498 115.074 172.911 119.071L165.256 122.187C182.029 119.448 198.468 114.543 213.683 107.014L219.759 103.474L219.754 103.471Z" fill="white" style="fill:white;fill-opacity:1;"/>
<path d="M55.8516 26.5765C56.1956 26.8794 53.4643 29.2975 53.1537 29.6492C50.1554 33.0505 47.5499 36.847 45.3371 40.8054C46.1791 40.9337 48.1762 41.1878 48.7949 40.6719C49.2261 40.3151 50.7099 37.5376 51.2823 36.7495C53.9392 33.0838 57.1094 29.4721 60.5954 26.5765H93.8098C92.2286 30.7299 89.2226 36.1719 88.6912 40.5615C88.6296 41.0775 88.6912 40.8824 89.0609 40.9311C89.8464 41.0364 90.791 40.849 91.6048 40.9465C92.5494 38.1331 93.358 35.2401 94.4593 32.4754C94.9085 31.346 96.3255 27.747 96.9185 26.9872C97.1752 26.6586 97.3266 26.5303 97.7733 26.5611L158.791 26.6175C159.51 26.864 162.125 33.4817 162.554 34.6471C162.903 35.5944 164.223 40.3844 164.469 40.6796C164.926 41.2238 166.91 40.8054 167.68 40.9286L162.552 26.5765H193.458C197.917 30.848 202.189 35.4224 205.182 40.8772L205.505 40.9517C206.332 40.849 207.284 41.0364 208.082 40.9337C208.437 40.8875 208.529 41.0749 208.455 40.5589C205.654 35.3839 201.837 30.9378 197.945 26.5816H221.926C233.265 33.8334 245.091 44.2554 247.84 58.0993C251.447 76.2582 239.459 90.0559 225.774 99.8875H200.253C202.368 97.2435 204.581 94.679 206.414 91.8194C207.479 90.156 209.997 86.0873 210.506 84.3725C210.647 83.8925 210.426 84.0337 210.131 83.9952C209.51 83.913 207.726 83.8694 207.302 84.2493C204.453 90.0636 200.605 95.3285 196.02 99.8875H163.576C165.606 94.7509 167.606 89.4757 168.451 83.9952L165.493 84.2442C164.749 87.4093 163.902 90.5461 162.811 93.6111C162.49 94.5096 160.552 99.6821 160.072 99.8438L95.8352 99.7257C93.5351 94.661 91.9616 89.3551 90.5754 83.9772C89.7617 84.0722 88.8196 83.8899 88.0341 83.9926C87.6567 84.0414 87.6079 83.8463 87.6696 84.3597C88.2856 89.4552 91.0221 94.9922 92.5289 99.8849H57.7743C53.3385 95.1616 49.1902 90.0225 46.577 84.0362L43.2835 83.9977C45.7376 89.871 49.583 94.9691 53.5438 99.8875H26.2284C17.2516 93.6214 8.44676 85.14 5.00185 74.451C-1.7314 53.5634 13.5705 36.7084 30.0763 26.579H55.8541L55.8516 26.5765ZM42 49.9002H36.3578V73.6091L36.7428 73.9941H65.0851V69.6379H42V49.9002ZM74.3186 49.9002H68.6763V68.2261C68.6763 68.3955 69.0742 70.0153 69.1743 70.2925C70.1575 72.9622 72.8528 73.8093 75.4635 74.0044C81.0056 74.4177 90.9887 74.4767 96.4718 73.9608C98.4869 73.7708 100.428 73.1496 101.619 71.4143C101.801 71.1473 102.532 69.679 102.532 69.5096V49.9002H96.8902V67.7152C96.8902 68.6009 95.0574 69.5404 94.1974 69.6379C88.8658 70.2437 82.4585 69.181 77.0062 69.6431C75.6791 69.6225 74.3186 68.2004 74.3186 66.9451V49.9002ZM111.381 49.9002H106.763L106.378 50.2853V73.6116L106.763 73.9967H111.892L112.277 73.6116V60.1554L122.391 73.758L126.637 73.8632L137.159 59.8987V73.9967H142.801V49.9028H137.801L125.212 67.0555L124.465 67.592L111.381 49.9028V49.9002ZM148.536 51.5303C147.642 52.3954 147.031 53.9227 146.908 55.1575C146.577 58.4612 146.61 65.1559 146.895 68.493C147.227 72.3564 149.883 73.74 153.436 74.0044C157.674 74.3227 173.148 74.5691 176.611 73.5629C179.478 72.7312 180.549 70.5595 180.772 67.7229C181.001 64.8222 181.108 56.2947 180.325 53.797C179.527 51.2479 177.312 50.1107 174.745 49.8925C167.696 49.2893 159.807 50.37 152.669 49.8925C151.321 50.0106 149.511 50.5882 148.538 51.5329L148.536 51.5303ZM209.743 66.5627L188.84 49.9028H183.583V73.9967H189.225V57.3369L210.385 73.9967H215.386V49.9028H209.743V66.5627Z" fill="black" style="fill:black;fill-opacity:1;"/>
<path d="M158.195 103.471C158.431 103.679 156.668 106.51 156.406 106.936C142.896 128.889 119.035 132.509 102.689 111.138C100.876 108.769 99.2285 106.151 97.9219 103.471H158.195Z" fill="black" style="fill:black;fill-opacity:1;"/>
<path d="M157.169 23.2455H99.2031C99.7833 21.8798 100.697 20.5244 101.554 19.3154C106.858 11.8582 114.69 5.22254 124.023 3.83636C138.779 1.64414 150.079 11.4296 157.169 23.2455Z" fill="black" style="fill:black;fill-opacity:1;"/>
<path d="M94.198 103.471C95.8871 106.076 97.3297 108.815 99.1421 111.346C102.921 116.616 107.367 120.898 112.97 124.184C113.094 124.256 113.789 124.569 113.43 124.749C96.6367 122.623 80.0975 117.191 66.3948 107.159C64.8675 106.043 63.2323 104.906 62.0078 103.471H94.198Z" fill="black" style="fill:black;fill-opacity:1;"/>
<path d="M192.049 103.471C180.616 113.307 166.292 119.658 151.578 122.877C149.252 123.385 146.028 124.107 143.705 124.243C143.104 124.279 143.055 124.248 143.638 123.919C151.739 119.371 157.546 111.495 161.91 103.473H192.047L192.049 103.471Z" fill="black" style="fill:black;fill-opacity:1;"/>
<path d="M64.5781 23.245C76.4351 13.8447 90.9797 8.15107 105.825 5.38385C108.097 4.96029 110.902 4.40839 113.179 4.26977C113.782 4.23383 113.826 4.26207 113.246 4.59321C105.445 9.03156 99.9309 15.5338 95.4874 23.2476H64.5807L64.5781 23.245Z" fill="black" style="fill:black;fill-opacity:1;"/>
<path d="M189.223 23.2453H160.496C156.602 15.878 150.914 9.14732 143.569 5.04269C143.503 4.69358 143.669 4.78599 143.957 4.78085C146.598 4.71411 152.585 6.26458 155.367 6.96794C167.409 10.0098 179.53 15.5084 189.221 23.2453H189.223Z" fill="black" style="fill:black;fill-opacity:1;"/>
<path d="M57.2655 103.471C66.4811 112.247 77.8529 118.38 89.8742 122.407C90.5775 122.644 90.4954 122.687 89.8357 122.703C70.691 119.689 51.6412 114.442 34.6503 105.052C33.8776 104.626 32.838 104.112 32.2578 103.471H57.2655Z" fill="black" style="fill:black;fill-opacity:1;"/>
<path d="M219.753 103.471L213.676 107.011C198.464 114.54 182.023 119.446 165.25 122.185L172.905 119.068C181.494 115.072 189.762 110.125 196.537 103.469H219.747L219.753 103.471Z" fill="black" style="fill:black;fill-opacity:1;"/>
<path d="M36.1016 23.2448C36.3377 22.8649 37.1617 22.5055 37.5853 22.2924C54.1065 13.9548 72.037 8.89011 90.3449 6.06641C90.753 6.33337 90.1472 6.38215 89.965 6.45146C87.8472 7.25236 85.6498 7.89668 83.5551 8.76689C75.0738 12.2914 66.6797 17.1251 59.8258 23.2448H36.1016Z" fill="black" style="fill:black;fill-opacity:1;"/>
<path d="M215.649 23.2453H194.232C185.895 16.2733 176.081 10.5823 165.728 7.12709C165.053 6.90119 165.118 6.79338 165.764 6.83188C169.202 7.03981 174.461 8.45423 177.947 9.27054C189.178 11.9043 205.034 16.7148 214.884 22.5958C215.164 22.7627 215.59 22.8551 215.649 23.2427V23.2453Z" fill="black" style="fill:black;fill-opacity:1;"/>
<path d="M148.54 51.531C149.513 50.5863 151.323 50.0087 152.671 49.8907C159.81 50.3681 167.698 49.2849 174.747 49.8907C177.316 50.1114 179.529 51.2486 180.328 53.7951C181.11 56.2928 181 64.8203 180.774 67.7211C180.551 70.5576 179.483 72.7267 176.613 73.561C173.15 74.5672 157.676 74.3208 153.438 74.0025C149.885 73.7355 147.231 72.3545 146.898 68.4912C146.61 65.1541 146.579 58.4593 146.91 55.1556C147.034 53.9209 147.645 52.3935 148.538 51.5284L148.54 51.531ZM163.745 53.5101C163.26 53.5923 162.307 55.3661 161.997 55.8795C159.707 59.6709 155.692 65.3209 160.269 68.9738C164.533 72.375 170.152 68.6631 169.485 63.352C169.341 62.2071 165.667 55.669 164.818 54.4317C164.618 54.1416 164.14 53.4434 163.742 53.5127L163.745 53.5101Z" fill="white" style="fill:white;fill-opacity:1;"/>
<path d="M111.386 49.9004L124.47 67.5896L125.214 67.0557L137.803 49.9004H142.806V73.9943H137.161V59.8989L126.642 73.8608L122.396 73.7581L112.282 60.153V73.6118L111.899 73.9943H106.768L106.383 73.6118V50.2854L106.768 49.9004H111.386Z" fill="white" style="fill:white;fill-opacity:1;"/>
<path d="M209.749 66.5628V49.9004H215.391V73.9943H210.391L189.228 57.3344V73.9943H183.586V49.9004H188.846L209.749 66.5628Z" fill="white" style="fill:white;fill-opacity:1;"/>
<path d="M74.322 49.9004V66.9453C74.322 68.2006 75.6825 69.6227 77.0096 69.6432C82.4594 69.1811 88.8692 70.2439 94.2008 69.6381C95.0608 69.5405 96.8936 68.601 96.8936 67.7154V49.9004H102.536V69.5097C102.536 69.6817 101.804 71.15 101.622 71.4144C100.431 73.1497 98.4928 73.7709 96.4752 73.9609C90.9895 74.4769 81.009 74.4178 75.4668 74.0045C72.8562 73.8095 70.1608 72.9623 69.1777 70.2927C69.0776 70.018 68.6797 68.3982 68.6797 68.2262V49.9004H74.322Z" fill="white" style="fill:white;fill-opacity:1;"/>
<path d="M42.0016 49.9004V69.6381H65.0867V73.9943H36.7444L36.3594 73.6118V49.9004H42.0016Z" fill="white" style="fill:white;fill-opacity:1;"/>
<path d="M163.74 53.5103C164.138 53.4436 164.615 54.1393 164.815 54.4293C165.665 55.6666 169.338 62.2048 169.482 63.3497C170.149 68.6608 164.53 72.3727 160.266 68.9714C155.689 65.3211 159.707 59.6686 161.994 55.8771C162.305 55.3637 163.257 53.5899 163.742 53.5078L163.74 53.5103Z" fill="black" style="fill:black;fill-opacity:1;"/>
</svg>
