<svg width="90" height="33" viewBox="0 0 90 33" fill="none" xmlns="http://www.w3.org/2000/svg">
<path d="M20.5348 21.8859C20.1853 21.9812 19.8044 22.0824 19.4016 22.1855C17.545 22.6609 15.2419 23.1719 13.4158 23.3295C11.023 23.5362 9.66583 23.5362 7.27302 23.3295C5.44689 23.1719 3.14385 22.6609 1.28715 22.1855C0.88446 22.0824 0.503532 21.9812 0.153944 21.8859C-0.0538438 21.5779 0.0646123 21.0865 0.509311 20.9878L6.45868 19.6656C6.93307 19.5603 7.29162 19.1705 7.35728 18.689L9.76915 1.00212C9.86043 0.332626 10.8283 0.332625 10.9196 1.00212L13.3315 18.689C13.3971 19.1705 13.7558 19.5603 14.2301 19.6656L20.1795 20.9878C20.6241 21.0865 20.7426 21.578 20.5348 21.8859Z" fill="white" style="fill:white;fill-opacity:1;"/>
<path d="M14.3721 23.8076C14.0611 23.8488 13.7578 23.8828 13.4658 23.9079C11.0397 24.1174 9.64913 24.1174 7.22308 23.9079C6.93099 23.8828 6.62764 23.8488 6.31657 23.8076C7.1235 24.3956 7.73397 25.2385 8.03059 26.2273L9.7883 32.0863C9.9538 32.6379 10.735 32.6379 10.9005 32.0863L12.6581 26.2273C12.9548 25.2385 13.5652 24.3956 14.3721 23.8076Z" fill="white" style="fill:white;fill-opacity:1;"/>
<path d="M29.5528 25.625V24.953L31.1848 24.473V8.47697L29.5528 8.02097V7.34897H35.5168V8.02097L33.7168 8.47697V24.509H38.8768C39.2368 23.805 39.5448 23.097 39.8008 22.385C40.0568 21.673 40.3008 20.877 40.5328 19.997H41.2408L40.4968 25.625H29.5528ZM46.1537 25.877C45.1777 25.877 44.4537 25.577 43.9817 24.977C43.5177 24.369 43.2857 23.485 43.2857 22.325V14.069L41.8577 13.661V13.037H45.5777V21.413C45.5777 22.477 45.7257 23.205 46.0217 23.597C46.3257 23.981 46.7937 24.173 47.4257 24.173C47.8497 24.173 48.2617 24.033 48.6617 23.753C49.0617 23.465 49.4177 23.021 49.7297 22.421V23.621C49.2577 24.333 48.7097 24.889 48.0857 25.289C47.4617 25.681 46.8177 25.877 46.1537 25.877ZM49.5497 25.877V23.717L49.4417 23.633V14.069L48.0497 13.661V13.037H51.7217V23.705L53.0777 24.305V24.701L49.7897 25.877H49.5497ZM60.5503 25.625V24.989L61.9303 24.605V17.297C61.9303 16.337 61.7743 15.625 61.4623 15.161C61.1583 14.689 60.6703 14.453 59.9983 14.453C59.0703 14.453 58.3023 14.977 57.6943 16.025V14.861C58.2063 14.221 58.7783 13.717 59.4103 13.349C60.0503 12.981 60.7063 12.797 61.3783 12.797C63.2743 12.797 64.2223 13.977 64.2223 16.337V24.605L65.6383 24.989V25.625H60.5503ZM54.1903 25.625V24.989L55.6303 24.593V15.041L54.1903 14.369V13.961L57.5383 12.797H57.8143V14.885L57.9103 15.005V24.593L59.3023 24.989V25.625H54.1903ZM71.9767 25.877C70.9367 25.877 70.0287 25.589 69.2527 25.013C68.4767 24.429 67.8727 23.645 67.4407 22.661C67.0167 21.669 66.8047 20.561 66.8047 19.337C66.8047 18.105 67.0167 16.997 67.4407 16.013C67.8727 15.029 68.4767 14.249 69.2527 13.673C70.0287 13.089 70.9367 12.797 71.9767 12.797C73.0247 12.797 73.9327 13.089 74.7007 13.673C75.4767 14.249 76.0807 15.029 76.5127 16.013C76.9447 16.997 77.1607 18.105 77.1607 19.337C77.1607 20.561 76.9447 21.669 76.5127 22.661C76.0807 23.645 75.4767 24.429 74.7007 25.013C73.9327 25.589 73.0247 25.877 71.9767 25.877ZM71.9767 24.737C72.4327 24.737 72.8287 24.593 73.1647 24.305C73.5087 24.017 73.7887 23.621 74.0047 23.117C74.2207 22.613 74.3807 22.037 74.4847 21.389C74.5887 20.741 74.6407 20.053 74.6407 19.325C74.6407 18.605 74.5887 17.921 74.4847 17.273C74.3887 16.625 74.2327 16.053 74.0167 15.557C73.8007 15.053 73.5247 14.657 73.1887 14.369C72.8527 14.081 72.4487 13.937 71.9767 13.937C71.5127 13.937 71.1127 14.081 70.7767 14.369C70.4407 14.657 70.1647 15.053 69.9487 15.557C69.7327 16.053 69.5727 16.625 69.4687 17.273C69.3647 17.921 69.3127 18.609 69.3127 19.337C69.3127 20.065 69.3647 20.753 69.4687 21.401C69.5727 22.049 69.7327 22.625 69.9487 23.129C70.1647 23.625 70.4367 24.017 70.7647 24.305C71.1007 24.593 71.5047 24.737 71.9767 24.737ZM84.855 25.625V24.989L86.235 24.605V17.297C86.235 16.337 86.079 15.625 85.767 15.161C85.463 14.689 84.975 14.453 84.303 14.453C83.375 14.453 82.607 14.977 81.999 16.025V14.861C82.511 14.221 83.083 13.717 83.715 13.349C84.355 12.981 85.011 12.797 85.683 12.797C87.579 12.797 88.527 13.977 88.527 16.337V24.605L89.943 24.989V25.625H84.855ZM78.4949 25.625V24.989L79.935 24.593V15.041L78.4949 14.369V13.961L81.843 12.797H82.119V14.885L82.215 15.005V24.593L83.607 24.989V25.625H78.4949Z" fill="white" style="fill:white;fill-opacity:1;"/>
</svg>
